<mxfile host="app.diagrams.net" modified="2023-12-24T22:56:54.616Z" agent="Mozilla/5.0 (Macintosh; Intel Mac OS X 10_15_7) AppleWebKit/605.1.15 (KHTML, like Gecko) Version/17.2.1 Safari/605.1.15" etag="7wUceaBruB-t-yQmD3UE" version="22.1.11" type="device">
  <diagram name="Page-1" id="kT3rGXPoze764pUAzvLv">
    <mxGraphModel dx="2357" dy="894" grid="1" gridSize="10" guides="1" tooltips="1" connect="1" arrows="1" fold="1" page="1" pageScale="1" pageWidth="827" pageHeight="1169" math="0" shadow="0">
      <root>
        <mxCell id="0" />
        <mxCell id="1" parent="0" />
        <mxCell id="vmnHjaY4ueBJ00-LJGPd-2" value="" style="endArrow=classic;html=1;rounded=0;entryX=-0.002;entryY=0.233;entryDx=0;entryDy=0;entryPerimeter=0;" parent="1" target="vmnHjaY4ueBJ00-LJGPd-5" edge="1">
          <mxGeometry relative="1" as="geometry">
            <mxPoint x="110" y="450" as="sourcePoint" />
            <mxPoint x="240" y="368" as="targetPoint" />
          </mxGeometry>
        </mxCell>
        <mxCell id="vmnHjaY4ueBJ00-LJGPd-5" value="" style="rounded=0;whiteSpace=wrap;html=1;" parent="1" vertex="1">
          <mxGeometry x="290" y="280" width="190" height="350" as="geometry" />
        </mxCell>
        <mxCell id="vmnHjaY4ueBJ00-LJGPd-6" value="&lt;font style=&quot;font-size: 16px;&quot;&gt;Память ЭВМ&lt;/font&gt;" style="text;html=1;align=center;verticalAlign=middle;resizable=0;points=[];autosize=1;strokeColor=none;fillColor=none;" parent="1" vertex="1">
          <mxGeometry x="325" y="250" width="120" height="30" as="geometry" />
        </mxCell>
        <mxCell id="vmnHjaY4ueBJ00-LJGPd-8" value="" style="endArrow=classic;html=1;rounded=0;entryX=0;entryY=0.75;entryDx=0;entryDy=0;" parent="1" target="vmnHjaY4ueBJ00-LJGPd-5" edge="1">
          <mxGeometry width="50" height="50" relative="1" as="geometry">
            <mxPoint x="110" y="450" as="sourcePoint" />
            <mxPoint x="240" y="525" as="targetPoint" />
          </mxGeometry>
        </mxCell>
        <mxCell id="vmnHjaY4ueBJ00-LJGPd-9" value="" style="endArrow=none;html=1;rounded=0;" parent="1" edge="1">
          <mxGeometry width="50" height="50" relative="1" as="geometry">
            <mxPoint x="-200" y="450" as="sourcePoint" />
            <mxPoint x="110" y="450" as="targetPoint" />
          </mxGeometry>
        </mxCell>
        <mxCell id="vmnHjaY4ueBJ00-LJGPd-10" value="" style="endArrow=classic;html=1;rounded=0;entryX=0.006;entryY=0.49;entryDx=0;entryDy=0;entryPerimeter=0;" parent="1" target="vmnHjaY4ueBJ00-LJGPd-5" edge="1">
          <mxGeometry width="50" height="50" relative="1" as="geometry">
            <mxPoint x="110" y="450" as="sourcePoint" />
            <mxPoint x="234" y="451" as="targetPoint" />
          </mxGeometry>
        </mxCell>
        <mxCell id="vmnHjaY4ueBJ00-LJGPd-11" value="" style="endArrow=classic;html=1;rounded=0;exitX=1;exitY=0.5;exitDx=0;exitDy=0;" parent="1" source="vmnHjaY4ueBJ00-LJGPd-5" edge="1">
          <mxGeometry width="50" height="50" relative="1" as="geometry">
            <mxPoint x="390" y="460" as="sourcePoint" />
            <mxPoint x="650" y="455" as="targetPoint" />
          </mxGeometry>
        </mxCell>
        <mxCell id="vmnHjaY4ueBJ00-LJGPd-17" value="&lt;font style=&quot;font-size: 16px;&quot;&gt;Решённые задачи&lt;/font&gt;" style="edgeLabel;html=1;align=center;verticalAlign=middle;resizable=0;points=[];" parent="vmnHjaY4ueBJ00-LJGPd-11" vertex="1" connectable="0">
          <mxGeometry x="0.3882" y="2" relative="1" as="geometry">
            <mxPoint x="-28" y="-13" as="offset" />
          </mxGeometry>
        </mxCell>
        <mxCell id="vmnHjaY4ueBJ00-LJGPd-13" value="&lt;font style=&quot;font-size: 16px;&quot;&gt;Задачи А, B и С&lt;/font&gt;" style="text;html=1;strokeColor=none;fillColor=none;align=center;verticalAlign=middle;whiteSpace=wrap;rounded=0;" parent="1" vertex="1">
          <mxGeometry x="-170" y="420" width="140" height="30" as="geometry" />
        </mxCell>
        <mxCell id="vmnHjaY4ueBJ00-LJGPd-14" value="&lt;font style=&quot;font-size: 16px;&quot;&gt;= С&lt;br&gt;full&lt;br&gt;&lt;/font&gt;" style="text;html=1;strokeColor=none;fillColor=none;align=center;verticalAlign=middle;whiteSpace=wrap;rounded=0;" parent="1" vertex="1">
          <mxGeometry x="200" y="410" width="50" height="40" as="geometry" />
        </mxCell>
        <mxCell id="vmnHjaY4ueBJ00-LJGPd-15" value="&lt;font size=&quot;3&quot;&gt;= A&lt;br&gt;одновременно с B&lt;br&gt;&lt;/font&gt;" style="text;html=1;strokeColor=none;fillColor=none;align=center;verticalAlign=middle;whiteSpace=wrap;rounded=0;" parent="1" vertex="1">
          <mxGeometry x="160" y="280" width="130" height="80" as="geometry" />
        </mxCell>
        <mxCell id="vmnHjaY4ueBJ00-LJGPd-16" value="&lt;font style=&quot;font-size: 16px;&quot;&gt;= B&lt;br style=&quot;border-color: var(--border-color);&quot;&gt;одновременно с A&lt;/font&gt;" style="text;html=1;strokeColor=none;fillColor=none;align=center;verticalAlign=middle;whiteSpace=wrap;rounded=0;" parent="1" vertex="1">
          <mxGeometry x="160" y="550" width="130" height="70" as="geometry" />
        </mxCell>
        <mxCell id="vmnHjaY4ueBJ00-LJGPd-18" value="" style="rounded=0;whiteSpace=wrap;html=1;" parent="1" vertex="1">
          <mxGeometry x="-10" y="430" width="120" height="40" as="geometry" />
        </mxCell>
        <mxCell id="vmnHjaY4ueBJ00-LJGPd-12" value="&lt;font style=&quot;font-size: 16px;&quot;&gt;Очередь&lt;/font&gt;" style="text;html=1;align=center;verticalAlign=middle;resizable=0;points=[];autosize=1;strokeColor=none;fillColor=none;" parent="1" vertex="1">
          <mxGeometry x="5" y="435" width="90" height="30" as="geometry" />
        </mxCell>
      </root>
    </mxGraphModel>
  </diagram>
</mxfile>
